<svg xmlns="http://www.w3.org/2000/svg" viewBox="0 0 100 100">
  <rect width="100" height="100" fill="#111"/>
  <!-- Chip body -->
  <rect x="22" y="22" width="56" height="56" rx="5" fill="#1a1a2e" stroke="#2a2a50" stroke-width="2"/>
  <!-- Die -->
  <rect x="30" y="30" width="40" height="40" rx="3" fill="#0d0d1a"/>
  <!-- Die details -->
  <rect x="33" y="33" width="16" height="16" rx="1" fill="#1a1a3a" stroke="#2a2a55" stroke-width="0.5"/>
  <rect x="51" y="33" width="16" height="16" rx="1" fill="#1a1a3a" stroke="#2a2a55" stroke-width="0.5"/>
  <rect x="33" y="51" width="16" height="16" rx="1" fill="#1a1a3a" stroke="#2a2a55" stroke-width="0.5"/>
  <rect x="51" y="51" width="16" height="16" rx="1" fill="#1a1a3a" stroke="#2a2a55" stroke-width="0.5"/>
  <!-- Pins top -->
  <line x1="30" y1="16" x2="30" y2="22" stroke="#888" stroke-width="2"/>
  <line x1="38" y1="16" x2="38" y2="22" stroke="#888" stroke-width="2"/>
  <line x1="46" y1="16" x2="46" y2="22" stroke="#888" stroke-width="2"/>
  <line x1="54" y1="16" x2="54" y2="22" stroke="#888" stroke-width="2"/>
  <line x1="62" y1="16" x2="62" y2="22" stroke="#888" stroke-width="2"/>
  <line x1="70" y1="16" x2="70" y2="22" stroke="#888" stroke-width="2"/>
  <!-- Pins bottom -->
  <line x1="30" y1="78" x2="30" y2="84" stroke="#888" stroke-width="2"/>
  <line x1="38" y1="78" x2="38" y2="84" stroke="#888" stroke-width="2"/>
  <line x1="46" y1="78" x2="46" y2="84" stroke="#888" stroke-width="2"/>
  <line x1="54" y1="78" x2="54" y2="84" stroke="#888" stroke-width="2"/>
  <line x1="62" y1="78" x2="62" y2="84" stroke="#888" stroke-width="2"/>
  <line x1="70" y1="78" x2="70" y2="84" stroke="#888" stroke-width="2"/>
  <!-- Pins left -->
  <line x1="16" y1="30" x2="22" y2="30" stroke="#888" stroke-width="2"/>
  <line x1="16" y1="38" x2="22" y2="38" stroke="#888" stroke-width="2"/>
  <line x1="16" y1="46" x2="22" y2="46" stroke="#888" stroke-width="2"/>
  <line x1="16" y1="54" x2="22" y2="54" stroke="#888" stroke-width="2"/>
  <line x1="16" y1="62" x2="22" y2="62" stroke="#888" stroke-width="2"/>
  <line x1="16" y1="70" x2="22" y2="70" stroke="#888" stroke-width="2"/>
  <!-- Pins right -->
  <line x1="78" y1="30" x2="84" y2="30" stroke="#888" stroke-width="2"/>
  <line x1="78" y1="38" x2="84" y2="38" stroke="#888" stroke-width="2"/>
  <line x1="78" y1="46" x2="84" y2="46" stroke="#888" stroke-width="2"/>
  <line x1="78" y1="54" x2="84" y2="54" stroke="#888" stroke-width="2"/>
  <line x1="78" y1="62" x2="84" y2="62" stroke="#888" stroke-width="2"/>
  <line x1="78" y1="70" x2="84" y2="70" stroke="#888" stroke-width="2"/>
</svg>
