<svg xmlns="http://www.w3.org/2000/svg" viewBox="0 0 100 100">
  <rect width="100" height="100" fill="#111"/>
  <!-- PCB body -->
  <rect x="5" y="22" width="88" height="56" rx="5" fill="#14261a" stroke="#1e3d28" stroke-width="1.5"/>
  <!-- Fan 1 -->
  <circle cx="32" cy="50" r="19" fill="#0a0a0a" stroke="#2a2a2a" stroke-width="1.5"/>
  <path d="M32 31 L37 45 L32 50 L27 45Z" fill="#1a1a1a"/>
  <path d="M51 50 L37 55 L32 50 L37 45Z" fill="#1a1a1a"/>
  <path d="M32 69 L27 55 L32 50 L37 55Z" fill="#1a1a1a"/>
  <path d="M13 50 L27 45 L32 50 L27 55Z" fill="#1a1a1a"/>
  <circle cx="32" cy="50" r="5" fill="#222"/>
  <!-- Fan 2 -->
  <circle cx="65" cy="50" r="19" fill="#0a0a0a" stroke="#2a2a2a" stroke-width="1.5"/>
  <path d="M65 31 L70 45 L65 50 L60 45Z" fill="#1a1a1a"/>
  <path d="M84 50 L70 55 L65 50 L70 45Z" fill="#1a1a1a"/>
  <path d="M65 69 L60 55 L65 50 L70 55Z" fill="#1a1a1a"/>
  <path d="M46 50 L60 45 L65 50 L60 55Z" fill="#1a1a1a"/>
  <circle cx="65" cy="50" r="5" fill="#222"/>
  <!-- PCIe slot -->
  <rect x="8" y="75" width="55" height="6" rx="1" fill="#0d0d0d" stroke="#2a2a2a"/>
  <!-- Power connectors -->
  <rect x="82" y="28" width="12" height="7" rx="1.5" fill="#2a2a2a"/>
  <rect x="82" y="38" width="12" height="7" rx="1.5" fill="#2a2a2a"/>
  <!-- Display outputs -->
  <rect x="82" y="58" width="10" height="5" rx="1" fill="#333"/>
  <rect x="82" y="65" width="10" height="5" rx="1" fill="#333"/>
</svg>
